# xmcd
#
# Track frame offsets:
#	150
#	14989
#	23798
#	36665
#	55690
#	70100
#	87739
#	106563
#	122523
#	140417
#	155155
#	168766
#	192805
#	211877
#
# Disc length: 3070 seconds
#
# Revision: 0
# Processed by: cddbd v1.5.2PL0 Copyright (c) Steve Scherf et al.
# Submitted via: audiograbber 1.83.01
#
DISCID=c00bfc0e
DTITLE=Various Artist - Country Music Messe 2015 CD1
DYEAR=2015
DGENRE=Country
TTITLE0=Barry P. Foley  - Pretty Girls
TTITLE1=Tina Clark and Rebound  - The Claw
TTITLE2=Mark Blomsteel - Different Just The Same
TTITLE3=Danny June Smith - Fairytale (Princes Ride Horses)
TTITLE4=Doug Adkins - Aint Gonna Play With Your Heart
TTITLE5=Robert Lottmann - Broken Heart
TTITLE6=Katja Picker - You Make Me Come Alive
TTITLE7=Caty Andrew - Tanzen liegt mir im Blut
TTITLE8=Die Glorreichen Zwei - Pizziricco
TTITLE9=Countrybell - Lay Down Your Love On Me
TTITLE10=Country Hell - 99 Problems
TTITLE11=David Lee Howard - Margaritas Made In Hell
TTITLE12=Henry Eye - Jessie (Deutsche version)
TTITLE13=Henry Eye feat. Owls On Rail - Wann mir uns Beinsche Schwinge
EXTD=
EXTT0=
EXTT1=
EXTT2=
EXTT3=
EXTT4=
EXTT5=
EXTT6=
EXTT7=
EXTT8=
EXTT9=
EXTT10=
EXTT11=
EXTT12=
EXTT13=
PLAYORDER=
